<svg width="200" height="295" viewBox="0 0 200 295" fill="none" xmlns="http://www.w3.org/2000/svg">
<path d="M14.3 33.6999C19.4 33.6999 23.6 37.8999 23.6 42.9999C23.6 48.0999 19.4 52.2999 14.3 52.2999C9.2 52.2999 5 48.0999 5 42.9999C5 37.8999 9.2 33.6999 14.3 33.6999ZM14.3 28.7C6.4 28.7 0 35.1 0 42.9999C0 50.8999 6.4 57.2999 14.3 57.2999C22.2 57.2999 28.6 50.8999 28.6 42.9999C28.6 35.1 22.2 28.7 14.3 28.7Z" fill="url(#paint0_linear_1_2188)"/>
<path d="M62.7 61.6C64.3 61.6 65.8 62 67.2 62.8L113.6 89.6C116.4 91.2 118.1 94.2 118.1 97.4C118.1 100.7 116.4 103.6 113.6 105.2L67.2 132C65.8 132.8 64.3 133.2 62.7 133.2C58.3 133.2 53.6 129.7 53.6 124.1V70.7C53.6 65.1 58.4 61.6 62.7 61.6ZM62.7 56.6C55.4 56.6 48.6 62.5 48.6 70.7V124.2C48.6 132.4 55.3 138.3 62.7 138.3C65 138.3 67.4 137.7 69.7 136.4L116.1 109.6C125.5 104.2 125.5 90.7 116.1 85.3L69.7 58.5C67.5 57.2 65.1 56.6 62.7 56.6Z" fill="url(#paint1_linear_1_2188)"/>
<path d="M63 5C64.6 5 66.3 5.4 67.7 6.3L180.2 71.8C189.5 77.2 195 86.8 195 97.6C195 108.4 189.4 118 180.1 123.4L49.7 198.6C43.6 202.1 37.2 204 31.4 204C26.8 204 22.5 202.9 18.8 200.7C10 195.7 5 185.5 5 172.8V79.8C5 74.7 9.2 70.5 14.3 70.5C19.4 70.5 23.6 74.7 23.6 79.8V124.3C23.8 138.4 31.2 151 43.2 157.9C49.3 161.4 56.2 163.3 63.1 163.3C68.6 163.3 74.1 162.1 79.2 159.9L79.4 159.8L79.6 159.7L132.4 129.2L132.7 129L133 128.8C142.6 121.3 148.1 109.9 148.1 97.5C148.1 84.5 141.8 72.3 131.2 64.9L131 64.8L130.8 64.7L58.3 22.4C53.9 19.8 52.4 14.1 54.9 9.7C56.6 6.8 59.7 5 63 5ZM63 0C58.1 0 53.3 2.5 50.6 7.1C46.6 13.9 48.9 22.7 55.8 26.7L128.5 69C137.7 75.5 143.2 86.1 143.2 97.6C143.2 108.5 138.3 118.4 130 124.9L77.2 155.4C72.7 157.4 67.9 158.4 63.1 158.4C57.1 158.4 51.2 156.8 45.7 153.7C35 147.5 28.8 136.6 28.6 124.3V79.8C28.6 71.9 22.2 65.5 14.3 65.5C6.4 65.5 0 71.9 0 79.8V172.8C0 187.3 5.9 199.1 16.2 205C20.8 207.6 25.9 209 31.3 209C38 209 45.2 207 52.1 202.9L182.6 127.6C193.5 121.3 200 110.1 200 97.5C200 84.9 193.5 73.7 182.7 67.4L70.2 1.9C67.9 0.6 65.5 0 63 0Z" fill="url(#paint2_linear_1_2188)"/>
<path d="M16.2005 262.288C15.2405 262.288 14.4512 262.011 13.8325 261.456C13.2352 260.88 12.9365 260.176 12.9365 259.344C12.9365 258.491 13.2352 257.787 13.8325 257.232C14.4512 256.656 15.2405 256.368 16.2005 256.368C17.1392 256.368 17.9072 256.656 18.5045 257.232C19.1232 257.787 19.4325 258.491 19.4325 259.344C19.4325 260.176 19.1232 260.88 18.5045 261.456C17.9072 262.011 17.1392 262.288 16.2005 262.288ZM18.9205 264.144V282H13.4485V264.144H18.9205ZM40.006 266.768C40.006 268.069 39.7073 269.264 39.11 270.352C38.5127 271.419 37.5953 272.283 36.358 272.944C35.1207 273.605 33.5847 273.936 31.75 273.936H28.358V282H22.886V259.536H31.75C33.542 259.536 35.0567 259.845 36.294 260.464C37.5313 261.083 38.4593 261.936 39.078 263.024C39.6967 264.112 40.006 265.36 40.006 266.768ZM31.334 269.584C32.3793 269.584 33.158 269.339 33.67 268.848C34.182 268.357 34.438 267.664 34.438 266.768C34.438 265.872 34.182 265.179 33.67 264.688C33.158 264.197 32.3793 263.952 31.334 263.952H28.358V269.584H31.334ZM48.3268 258.32V282H42.8548V258.32H48.3268ZM51.2043 273.04C51.2043 271.205 51.5456 269.595 52.2283 268.208C52.9323 266.821 53.8816 265.755 55.0763 265.008C56.2709 264.261 57.6043 263.888 59.0763 263.888C60.3349 263.888 61.4336 264.144 62.3723 264.656C63.3323 265.168 64.0683 265.84 64.5803 266.672V264.144H70.0523V282H64.5803V279.472C64.0469 280.304 63.3003 280.976 62.3403 281.488C61.4016 282 60.3029 282.256 59.0443 282.256C57.5936 282.256 56.2709 281.883 55.0763 281.136C53.8816 280.368 52.9323 279.291 52.2283 277.904C51.5456 276.496 51.2043 274.875 51.2043 273.04ZM64.5803 273.072C64.5803 271.707 64.1963 270.629 63.4283 269.84C62.6816 269.051 61.7643 268.656 60.6763 268.656C59.5883 268.656 58.6603 269.051 57.8923 269.84C57.1456 270.608 56.7723 271.675 56.7723 273.04C56.7723 274.405 57.1456 275.493 57.8923 276.304C58.6603 277.093 59.5883 277.488 60.6763 277.488C61.7643 277.488 62.6816 277.093 63.4283 276.304C64.1963 275.515 64.5803 274.437 64.5803 273.072ZM92.251 264.144L81.051 290.48H75.163L79.259 281.392L71.995 264.144H78.107L82.235 275.312L86.331 264.144H92.251ZM119.67 259.536V282H114.198V268.528L109.174 282H104.758L99.7018 268.496V282H94.2298V259.536H100.694L106.998 275.088L113.238 259.536H119.67ZM141.237 264.144V282H135.765V279.568C135.21 280.357 134.453 280.997 133.493 281.488C132.554 281.957 131.509 282.192 130.357 282.192C128.991 282.192 127.786 281.893 126.741 281.296C125.695 280.677 124.885 279.792 124.309 278.64C123.733 277.488 123.445 276.133 123.445 274.576V264.144H128.885V273.84C128.885 275.035 129.194 275.963 129.813 276.624C130.431 277.285 131.263 277.616 132.309 277.616C133.375 277.616 134.218 277.285 134.837 276.624C135.455 275.963 135.765 275.035 135.765 273.84V264.144H141.237ZM152.431 282.256C150.874 282.256 149.487 281.989 148.271 281.456C147.055 280.923 146.095 280.197 145.391 279.28C144.687 278.341 144.293 277.296 144.207 276.144H149.615C149.679 276.763 149.967 277.264 150.479 277.648C150.991 278.032 151.621 278.224 152.367 278.224C153.05 278.224 153.573 278.096 153.935 277.84C154.319 277.563 154.511 277.211 154.511 276.784C154.511 276.272 154.245 275.899 153.711 275.664C153.178 275.408 152.314 275.131 151.119 274.832C149.839 274.533 148.773 274.224 147.919 273.904C147.066 273.563 146.33 273.04 145.711 272.336C145.093 271.611 144.783 270.64 144.783 269.424C144.783 268.4 145.061 267.472 145.615 266.64C146.191 265.787 147.023 265.115 148.111 264.624C149.221 264.133 150.533 263.888 152.047 263.888C154.287 263.888 156.047 264.443 157.327 265.552C158.629 266.661 159.375 268.133 159.567 269.968H154.511C154.426 269.349 154.149 268.859 153.679 268.496C153.231 268.133 152.634 267.952 151.887 267.952C151.247 267.952 150.757 268.08 150.415 268.336C150.074 268.571 149.903 268.901 149.903 269.328C149.903 269.84 150.17 270.224 150.703 270.48C151.258 270.736 152.111 270.992 153.263 271.248C154.586 271.589 155.663 271.931 156.495 272.272C157.327 272.592 158.053 273.125 158.671 273.872C159.311 274.597 159.642 275.579 159.663 276.816C159.663 277.861 159.365 278.8 158.767 279.632C158.191 280.443 157.349 281.083 156.239 281.552C155.151 282.021 153.882 282.256 152.431 282.256ZM165.763 262.288C164.803 262.288 164.014 262.011 163.395 261.456C162.798 260.88 162.499 260.176 162.499 259.344C162.499 258.491 162.798 257.787 163.395 257.232C164.014 256.656 164.803 256.368 165.763 256.368C166.702 256.368 167.47 256.656 168.067 257.232C168.686 257.787 168.995 258.491 168.995 259.344C168.995 260.176 168.686 260.88 168.067 261.456C167.47 262.011 166.702 262.288 165.763 262.288ZM168.483 264.144V282H163.011V264.144H168.483ZM171.361 273.072C171.361 271.216 171.734 269.595 172.481 268.208C173.249 266.821 174.305 265.755 175.649 265.008C177.014 264.261 178.571 263.888 180.321 263.888C182.561 263.888 184.427 264.475 185.921 265.648C187.435 266.821 188.427 268.475 188.897 270.608H183.073C182.582 269.243 181.633 268.56 180.225 268.56C179.222 268.56 178.422 268.955 177.825 269.744C177.227 270.512 176.929 271.621 176.929 273.072C176.929 274.523 177.227 275.643 177.825 276.432C178.422 277.2 179.222 277.584 180.225 277.584C181.633 277.584 182.582 276.901 183.073 275.536H188.897C188.427 277.627 187.435 279.269 185.921 280.464C184.406 281.659 182.539 282.256 180.321 282.256C178.571 282.256 177.014 281.883 175.649 281.136C174.305 280.389 173.249 279.323 172.481 277.936C171.734 276.549 171.361 274.928 171.361 273.072Z" fill="white"/>
<defs>
<linearGradient id="paint0_linear_1_2188" x1="7.15" y1="35.85" x2="7.15" y2="35.85" gradientUnits="userSpaceOnUse">
<stop offset="1" stop-color="#FF6A00"/>
<stop stop-color="#EE0979"/>
</linearGradient>
<linearGradient id="paint1_linear_1_2188" x1="67.2375" y1="77.025" x2="67.2375" y2="77.025" gradientUnits="userSpaceOnUse">
<stop offset="1" stop-color="#FF6A00"/>
<stop stop-color="#EE0979"/>
</linearGradient>
<linearGradient id="paint2_linear_1_2188" x1="50" y1="52.25" x2="50" y2="52.25" gradientUnits="userSpaceOnUse">
<stop offset="1" stop-color="#FF6A00"/>
<stop stop-color="#EE0979"/>
</linearGradient>
</defs>
</svg>
